<svg width="208" height="38" viewBox="0 0 208 38" fill="none" xmlns="http://www.w3.org/2000/svg">
<rect width="208" height="38" rx="6" fill="#238636"/>
<path d="M21.76 24C21.6533 24 21.5627 23.968 21.488 23.904C21.424 23.8293 21.392 23.7387 21.392 23.632V13.168C21.392 13.0613 21.424 12.976 21.488 12.912C21.5627 12.8373 21.6533 12.8 21.76 12.8H22.608C22.7147 12.8 22.8 12.8373 22.864 12.912C22.9387 12.976 22.976 13.0613 22.976 13.168V22.608H28.288C28.4053 22.608 28.496 22.6453 28.56 22.72C28.6347 22.784 28.672 22.8747 28.672 22.992V23.632C28.672 23.7387 28.6347 23.8293 28.56 23.904C28.4853 23.968 28.3947 24 28.288 24H21.76ZM33.3558 24.16C32.2571 24.16 31.3771 23.824 30.7158 23.152C30.0651 22.4693 29.7078 21.5413 29.6438 20.368L29.6278 19.824L29.6438 19.296C29.7184 18.144 30.0811 17.2267 30.7318 16.544C31.3931 15.8613 32.2624 15.52 33.3398 15.52C34.5238 15.52 35.4411 15.8987 36.0918 16.656C36.7424 17.4027 37.0677 18.416 37.0677 19.696V19.968C37.0677 20.0747 37.0304 20.1653 36.9558 20.24C36.8918 20.304 36.8064 20.336 36.6998 20.336H31.1638V20.48C31.1958 21.1733 31.4038 21.7653 31.7878 22.256C32.1824 22.736 32.6998 22.976 33.3398 22.976C33.8304 22.976 34.2304 22.88 34.5398 22.688C34.8598 22.4853 35.0944 22.2773 35.2438 22.064C35.3398 21.936 35.4091 21.8613 35.4518 21.84C35.5051 21.808 35.5958 21.792 35.7238 21.792H36.5078C36.6038 21.792 36.6838 21.8187 36.7478 21.872C36.8118 21.9253 36.8438 22 36.8438 22.096C36.8438 22.3307 36.6944 22.6133 36.3958 22.944C36.1078 23.2747 35.6971 23.5627 35.1638 23.808C34.6411 24.0427 34.0384 24.16 33.3558 24.16ZM35.5478 19.232V19.184C35.5478 18.448 35.3451 17.8507 34.9398 17.392C34.5451 16.9227 34.0118 16.688 33.3398 16.688C32.6678 16.688 32.1344 16.9227 31.7398 17.392C31.3558 17.8507 31.1638 18.448 31.1638 19.184V19.232H35.5478ZM42.182 24C40.4967 24 39.654 23.0613 39.654 21.184V16.96H38.406C38.2993 16.96 38.2087 16.928 38.134 16.864C38.07 16.7893 38.038 16.6987 38.038 16.592V16.048C38.038 15.9413 38.07 15.856 38.134 15.792C38.2087 15.7173 38.2993 15.68 38.406 15.68H39.654V13.008C39.654 12.9013 39.686 12.816 39.75 12.752C39.8247 12.6773 39.9153 12.64 40.022 12.64H40.774C40.8807 12.64 40.966 12.6773 41.03 12.752C41.1047 12.816 41.142 12.9013 41.142 13.008V15.68H43.126C43.2327 15.68 43.318 15.7173 43.382 15.792C43.4567 15.856 43.494 15.9413 43.494 16.048V16.592C43.494 16.6987 43.4567 16.7893 43.382 16.864C43.318 16.928 43.2327 16.96 43.126 16.96H41.142V21.072C41.142 21.6053 41.2327 22.0107 41.414 22.288C41.5953 22.5547 41.894 22.688 42.31 22.688H43.286C43.3927 22.688 43.478 22.7253 43.542 22.8C43.6167 22.864 43.654 22.9493 43.654 23.056V23.632C43.654 23.7387 43.6167 23.8293 43.542 23.904C43.478 23.968 43.3927 24 43.286 24H42.182ZM52.4659 24.16C51.3245 24.16 50.4285 23.84 49.7779 23.2C49.1379 22.5493 48.7965 21.6427 48.7539 20.48L48.7379 19.84L48.7539 19.2C48.7965 18.0373 49.1379 17.136 49.7779 16.496C50.4285 15.8453 51.3245 15.52 52.4659 15.52C53.2339 15.52 53.8845 15.6587 54.4179 15.936C54.9512 16.2133 55.3459 16.5547 55.6019 16.96C55.8685 17.3653 56.0125 17.7707 56.0339 18.176C56.0445 18.2827 56.0125 18.368 55.9379 18.432C55.8632 18.496 55.7725 18.528 55.6659 18.528H54.8979C54.7912 18.528 54.7112 18.5067 54.6579 18.464C54.6045 18.4213 54.5512 18.336 54.4979 18.208C54.3165 17.696 54.0605 17.3333 53.7299 17.12C53.3992 16.896 52.9832 16.784 52.4819 16.784C51.8205 16.784 51.2925 16.992 50.8979 17.408C50.5139 17.8133 50.3059 18.4373 50.2739 19.28L50.2579 19.856L50.2739 20.4C50.3059 21.2533 50.5139 21.8827 50.8979 22.288C51.2819 22.6933 51.8099 22.896 52.4819 22.896C52.9832 22.896 53.3992 22.7893 53.7299 22.576C54.0605 22.352 54.3165 21.984 54.4979 21.472C54.5512 21.344 54.6045 21.2587 54.6579 21.216C54.7112 21.1627 54.7912 21.136 54.8979 21.136H55.6659C55.7725 21.136 55.8632 21.1733 55.9379 21.248C56.0125 21.312 56.0445 21.3973 56.0339 21.504C56.0125 21.8987 55.8685 22.304 55.6019 22.72C55.3459 23.1253 54.9512 23.4667 54.4179 23.744C53.8952 24.0213 53.2445 24.16 52.4659 24.16ZM61.342 24.16C60.1687 24.16 59.2567 23.8293 58.606 23.168C57.966 22.5067 57.6247 21.6267 57.582 20.528L57.566 19.84L57.582 19.152C57.6247 18.064 57.9713 17.1893 58.622 16.528C59.2727 15.856 60.1793 15.52 61.342 15.52C62.5047 15.52 63.4113 15.856 64.062 16.528C64.7127 17.1893 65.0593 18.064 65.102 19.152C65.1127 19.2693 65.118 19.4987 65.118 19.84C65.118 20.1813 65.1127 20.4107 65.102 20.528C65.0593 21.6267 64.7127 22.5067 64.062 23.168C63.422 23.8293 62.5153 24.16 61.342 24.16ZM61.342 22.928C62.014 22.928 62.542 22.7147 62.926 22.288C63.3207 21.8613 63.534 21.248 63.566 20.448C63.5767 20.3413 63.582 20.1387 63.582 19.84C63.582 19.5413 63.5767 19.3387 63.566 19.232C63.534 18.432 63.3207 17.8187 62.926 17.392C62.542 16.9653 62.014 16.752 61.342 16.752C60.67 16.752 60.1367 16.9653 59.742 17.392C59.3473 17.8187 59.1393 18.432 59.118 19.232L59.102 19.84L59.118 20.448C59.1393 21.248 59.3473 21.8613 59.742 22.288C60.1367 22.7147 60.67 22.928 61.342 22.928ZM67.4895 24C67.3828 24 67.2922 23.968 67.2175 23.904C67.1535 23.8293 67.1215 23.7387 67.1215 23.632V16.048C67.1215 15.9413 67.1535 15.856 67.2175 15.792C67.2922 15.7173 67.3828 15.68 67.4895 15.68H68.2095C68.3162 15.68 68.4015 15.7173 68.4655 15.792C68.5402 15.856 68.5775 15.9413 68.5775 16.048V16.608C69.1322 15.8827 69.9055 15.52 70.8975 15.52C72.0815 15.52 72.9188 16.0107 73.4095 16.992C73.6655 16.544 74.0282 16.1867 74.4975 15.92C74.9668 15.6533 75.4948 15.52 76.0815 15.52C76.9562 15.52 77.6708 15.8187 78.2255 16.416C78.7802 17.0133 79.0575 17.8773 79.0575 19.008V23.632C79.0575 23.7387 79.0202 23.8293 78.9455 23.904C78.8815 23.968 78.7962 24 78.6895 24H77.9375C77.8308 24 77.7402 23.968 77.6655 23.904C77.6015 23.8293 77.5695 23.7387 77.5695 23.632V19.152C77.5695 18.32 77.3935 17.7227 77.0415 17.36C76.7002 16.9973 76.2468 16.816 75.6815 16.816C75.1802 16.816 74.7482 17.0027 74.3855 17.376C74.0228 17.7387 73.8415 18.3307 73.8415 19.152V23.632C73.8415 23.7387 73.8042 23.8293 73.7295 23.904C73.6655 23.968 73.5802 24 73.4735 24H72.7215C72.6148 24 72.5242 23.968 72.4495 23.904C72.3855 23.8293 72.3535 23.7387 72.3535 23.632V19.152C72.3535 18.32 72.1722 17.7227 71.8095 17.36C71.4575 16.9973 71.0095 16.816 70.4655 16.816C69.9642 16.816 69.5322 17.0027 69.1695 17.376C68.8068 17.7387 68.6255 18.3253 68.6255 19.136V23.632C68.6255 23.7387 68.5882 23.8293 68.5135 23.904C68.4495 23.968 68.3642 24 68.2575 24H67.4895ZM81.7243 27.04C81.6176 27.04 81.5269 27.0027 81.4523 26.928C81.3883 26.864 81.3563 26.7787 81.3563 26.672V16.048C81.3563 15.9413 81.3883 15.856 81.4523 15.792C81.5269 15.7173 81.6176 15.68 81.7243 15.68H82.4603C82.5669 15.68 82.6523 15.7173 82.7163 15.792C82.7909 15.856 82.8283 15.9413 82.8283 16.048V16.752C83.4256 15.9307 84.3003 15.52 85.4523 15.52C86.5723 15.52 87.4096 15.872 87.9643 16.576C88.5296 17.28 88.8336 18.1867 88.8763 19.296C88.8869 19.4133 88.8923 19.5947 88.8923 19.84C88.8923 20.0853 88.8869 20.2667 88.8763 20.384C88.8336 21.4827 88.5296 22.3893 87.9643 23.104C87.3989 23.808 86.5616 24.16 85.4523 24.16C84.3429 24.16 83.4789 23.76 82.8603 22.96V26.672C82.8603 26.7787 82.8283 26.864 82.7643 26.928C82.7003 27.0027 82.6149 27.04 82.5082 27.04H81.7243ZM85.1163 22.864C85.8736 22.864 86.4229 22.6293 86.7643 22.16C87.1163 21.6907 87.3083 21.072 87.3403 20.304C87.3509 20.1973 87.3563 20.0427 87.3563 19.84C87.3563 17.824 86.6096 16.816 85.1163 16.816C84.3803 16.816 83.8256 17.0613 83.4523 17.552C83.0896 18.032 82.8923 18.608 82.8603 19.28L82.8443 19.888L82.8603 20.512C82.8816 21.1413 83.0843 21.6907 83.4683 22.16C83.8523 22.6293 84.4016 22.864 85.1163 22.864ZM93.9755 24.16C92.9622 24.16 92.1782 23.8347 91.6235 23.184C91.0688 22.5227 90.7915 21.648 90.7915 20.56V16.048C90.7915 15.9413 90.8235 15.856 90.8875 15.792C90.9622 15.7173 91.0528 15.68 91.1595 15.68H91.9595C92.0662 15.68 92.1515 15.7173 92.2155 15.792C92.2902 15.856 92.3275 15.9413 92.3275 16.048V20.48C92.3275 22.0693 93.0208 22.864 94.4075 22.864C95.0795 22.864 95.6128 22.656 96.0075 22.24C96.4022 21.8133 96.5995 21.2267 96.5995 20.48V16.048C96.5995 15.9413 96.6315 15.856 96.6955 15.792C96.7702 15.7173 96.8608 15.68 96.9675 15.68H97.7675C97.8742 15.68 97.9595 15.7173 98.0235 15.792C98.0875 15.856 98.1195 15.9413 98.1195 16.048V23.632C98.1195 23.7387 98.0875 23.8293 98.0235 23.904C97.9595 23.968 97.8742 24 97.7675 24H97.0155C96.9088 24 96.8182 23.968 96.7435 23.904C96.6795 23.8293 96.6475 23.7387 96.6475 23.632V22.928C96.3488 23.3333 95.9862 23.6427 95.5595 23.856C95.1328 24.0587 94.6048 24.16 93.9755 24.16ZM103.745 24C102.059 24 101.217 23.0613 101.217 21.184V16.96H99.9685C99.8618 16.96 99.7712 16.928 99.6965 16.864C99.6325 16.7893 99.6005 16.6987 99.6005 16.592V16.048C99.6005 15.9413 99.6325 15.856 99.6965 15.792C99.7712 15.7173 99.8618 15.68 99.9685 15.68H101.217V13.008C101.217 12.9013 101.249 12.816 101.312 12.752C101.387 12.6773 101.478 12.64 101.585 12.64H102.337C102.443 12.64 102.529 12.6773 102.593 12.752C102.667 12.816 102.705 12.9013 102.705 13.008V15.68H104.689C104.795 15.68 104.881 15.7173 104.945 15.792C105.019 15.856 105.057 15.9413 105.057 16.048V16.592C105.057 16.6987 105.019 16.7893 104.945 16.864C104.881 16.928 104.795 16.96 104.689 16.96H102.705V21.072C102.705 21.6053 102.795 22.0107 102.977 22.288C103.158 22.5547 103.457 22.688 103.873 22.688H104.849C104.955 22.688 105.041 22.7253 105.105 22.8C105.179 22.864 105.217 22.9493 105.217 23.056V23.632C105.217 23.7387 105.179 23.8293 105.105 23.904C105.041 23.968 104.955 24 104.849 24H103.745ZM110.075 24.16C108.976 24.16 108.096 23.824 107.435 23.152C106.784 22.4693 106.427 21.5413 106.363 20.368L106.347 19.824L106.363 19.296C106.437 18.144 106.8 17.2267 107.451 16.544C108.112 15.8613 108.981 15.52 110.059 15.52C111.243 15.52 112.16 15.8987 112.811 16.656C113.461 17.4027 113.786 18.416 113.786 19.696V19.968C113.786 20.0747 113.749 20.1653 113.675 20.24C113.611 20.304 113.525 20.336 113.419 20.336H107.883V20.48C107.915 21.1733 108.123 21.7653 108.507 22.256C108.901 22.736 109.419 22.976 110.059 22.976C110.549 22.976 110.949 22.88 111.259 22.688C111.579 22.4853 111.813 22.2773 111.963 22.064C112.059 21.936 112.128 21.8613 112.171 21.84C112.224 21.808 112.315 21.792 112.443 21.792H113.227C113.323 21.792 113.403 21.8187 113.467 21.872C113.531 21.9253 113.562 22 113.562 22.096C113.562 22.3307 113.413 22.6133 113.115 22.944C112.827 23.2747 112.416 23.5627 111.883 23.808C111.36 24.0427 110.757 24.16 110.075 24.16ZM112.267 19.232V19.184C112.267 18.448 112.064 17.8507 111.659 17.392C111.264 16.9227 110.731 16.688 110.059 16.688C109.387 16.688 108.853 16.9227 108.459 17.392C108.075 17.8507 107.883 18.448 107.883 19.184V19.232H112.267ZM116.068 24C115.961 24 115.87 23.968 115.796 23.904C115.732 23.8293 115.7 23.7387 115.7 23.632V16.064C115.7 15.9573 115.732 15.8667 115.796 15.792C115.87 15.7173 115.961 15.68 116.068 15.68H116.804C116.91 15.68 117.001 15.7173 117.076 15.792C117.15 15.8667 117.188 15.9573 117.188 16.064V16.768C117.625 16.0427 118.372 15.68 119.428 15.68H120.052C120.158 15.68 120.244 15.7173 120.308 15.792C120.382 15.856 120.42 15.9413 120.42 16.048V16.704C120.42 16.8107 120.382 16.896 120.308 16.96C120.244 17.024 120.158 17.056 120.052 17.056H119.092C118.516 17.056 118.062 17.2267 117.732 17.568C117.401 17.8987 117.236 18.352 117.236 18.928V23.632C117.236 23.7387 117.198 23.8293 117.124 23.904C117.049 23.968 116.958 24 116.852 24H116.068ZM125.709 27.04C125.602 27.04 125.511 27.0027 125.437 26.928C125.373 26.864 125.341 26.7787 125.341 26.672V16.048C125.341 15.9413 125.373 15.856 125.437 15.792C125.511 15.7173 125.602 15.68 125.709 15.68H126.445C126.551 15.68 126.637 15.7173 126.701 15.792C126.775 15.856 126.813 15.9413 126.813 16.048V16.752C127.41 15.9307 128.285 15.52 129.437 15.52C130.557 15.52 131.394 15.872 131.949 16.576C132.514 17.28 132.818 18.1867 132.861 19.296C132.871 19.4133 132.877 19.5947 132.877 19.84C132.877 20.0853 132.871 20.2667 132.861 20.384C132.818 21.4827 132.514 22.3893 131.949 23.104C131.383 23.808 130.546 24.16 129.437 24.16C128.327 24.16 127.463 23.76 126.845 22.96V26.672C126.845 26.7787 126.813 26.864 126.749 26.928C126.685 27.0027 126.599 27.04 126.493 27.04H125.709ZM129.101 22.864C129.858 22.864 130.407 22.6293 130.749 22.16C131.101 21.6907 131.293 21.072 131.325 20.304C131.335 20.1973 131.341 20.0427 131.341 19.84C131.341 17.824 130.594 16.816 129.101 16.816C128.365 16.816 127.81 17.0613 127.437 17.552C127.074 18.032 126.877 18.608 126.845 19.28L126.829 19.888L126.845 20.512C126.866 21.1413 127.069 21.6907 127.453 22.16C127.837 22.6293 128.386 22.864 129.101 22.864ZM135.24 24C135.133 24 135.043 23.968 134.968 23.904C134.904 23.8293 134.872 23.7387 134.872 23.632V13.008C134.872 12.9013 134.904 12.816 134.968 12.752C135.043 12.6773 135.133 12.64 135.24 12.64H135.992C136.099 12.64 136.184 12.6773 136.248 12.752C136.323 12.816 136.36 12.9013 136.36 13.008V23.632C136.36 23.7387 136.323 23.8293 136.248 23.904C136.184 23.968 136.099 24 135.992 24H135.24ZM141.067 24.16C140.544 24.16 140.059 24.0533 139.611 23.84C139.163 23.6267 138.805 23.3387 138.539 22.976C138.283 22.6027 138.155 22.192 138.155 21.744C138.155 21.04 138.443 20.464 139.019 20.016C139.605 19.5573 140.395 19.2587 141.387 19.12L143.771 18.784V18.32C143.771 17.232 143.147 16.688 141.899 16.688C141.429 16.688 141.045 16.7893 140.747 16.992C140.448 17.184 140.224 17.4133 140.075 17.68C140.043 17.776 140 17.8453 139.947 17.888C139.904 17.9307 139.84 17.952 139.755 17.952H139.067C138.971 17.952 138.885 17.92 138.811 17.856C138.747 17.7813 138.715 17.696 138.715 17.6C138.725 17.344 138.843 17.056 139.067 16.736C139.301 16.4053 139.659 16.1227 140.139 15.888C140.619 15.6427 141.211 15.52 141.915 15.52C143.109 15.52 143.968 15.8027 144.491 16.368C145.013 16.9227 145.275 17.616 145.275 18.448V23.632C145.275 23.7387 145.237 23.8293 145.163 23.904C145.099 23.968 145.013 24 144.907 24H144.171C144.064 24 143.973 23.968 143.899 23.904C143.835 23.8293 143.803 23.7387 143.803 23.632V22.944C143.568 23.2853 143.227 23.5733 142.779 23.808C142.331 24.0427 141.76 24.16 141.067 24.16ZM141.403 22.96C142.096 22.96 142.661 22.736 143.099 22.288C143.547 21.8293 143.771 21.1733 143.771 20.32V19.872L141.915 20.144C141.157 20.2507 140.587 20.432 140.203 20.688C139.819 20.9333 139.627 21.248 139.627 21.632C139.627 22.0587 139.803 22.3893 140.155 22.624C140.507 22.848 140.923 22.96 141.403 22.96ZM148.859 27.04C148.773 27.04 148.699 27.008 148.635 26.944C148.571 26.88 148.539 26.8053 148.539 26.72C148.539 26.6453 148.565 26.5493 148.619 26.432L149.851 23.504L146.795 16.288C146.741 16.1493 146.715 16.0587 146.715 16.016C146.715 15.92 146.747 15.84 146.811 15.776C146.875 15.712 146.955 15.68 147.051 15.68H147.835C148.005 15.68 148.133 15.7707 148.219 15.952L150.651 21.776L153.147 15.952C153.232 15.7707 153.365 15.68 153.547 15.68H154.299C154.395 15.68 154.475 15.712 154.539 15.776C154.603 15.84 154.635 15.9147 154.635 16C154.635 16.032 154.608 16.128 154.555 16.288L150.011 26.768C149.925 26.9493 149.792 27.04 149.611 27.04H148.859ZM160.634 24C160.527 24 160.437 23.968 160.362 23.904C160.298 23.8293 160.266 23.7387 160.266 23.632V16.96H158.906C158.799 16.96 158.709 16.928 158.634 16.864C158.57 16.7893 158.538 16.6987 158.538 16.592V16.048C158.538 15.9413 158.57 15.856 158.634 15.792C158.709 15.7173 158.799 15.68 158.906 15.68H160.266V14.88C160.266 13.0667 161.183 12.16 163.018 12.16H165.482C165.589 12.16 165.674 12.1973 165.738 12.272C165.813 12.336 165.85 12.4213 165.85 12.528V13.072C165.85 13.1787 165.813 13.2693 165.738 13.344C165.674 13.408 165.589 13.44 165.482 13.44H163.05C162.57 13.44 162.234 13.568 162.042 13.824C161.85 14.0693 161.754 14.448 161.754 14.96V15.68H165.482C165.589 15.68 165.674 15.7173 165.738 15.792C165.813 15.856 165.85 15.9413 165.85 16.048V23.632C165.85 23.7387 165.813 23.8293 165.738 23.904C165.674 23.968 165.589 24 165.482 24H164.746C164.639 24 164.549 23.968 164.474 23.904C164.41 23.8293 164.378 23.7387 164.378 23.632V16.96H161.754V23.632C161.754 23.7387 161.717 23.8293 161.642 23.904C161.578 23.968 161.493 24 161.386 24H160.634ZM168.583 24C168.477 24 168.386 23.968 168.311 23.904C168.247 23.8293 168.215 23.7387 168.215 23.632V16.064C168.215 15.9573 168.247 15.8667 168.311 15.792C168.386 15.7173 168.477 15.68 168.583 15.68H169.319C169.426 15.68 169.517 15.7173 169.591 15.792C169.666 15.8667 169.703 15.9573 169.703 16.064V16.768C170.141 16.0427 170.887 15.68 171.943 15.68H172.567C172.674 15.68 172.759 15.7173 172.823 15.792C172.898 15.856 172.935 15.9413 172.935 16.048V16.704C172.935 16.8107 172.898 16.896 172.823 16.96C172.759 17.024 172.674 17.056 172.567 17.056H171.607C171.031 17.056 170.578 17.2267 170.247 17.568C169.917 17.8987 169.751 18.352 169.751 18.928V23.632C169.751 23.7387 169.714 23.8293 169.639 23.904C169.565 23.968 169.474 24 169.367 24H168.583ZM177.173 24.16C176.427 24.16 175.797 24.0427 175.285 23.808C174.784 23.5627 174.405 23.2853 174.149 22.976C173.904 22.6667 173.781 22.4107 173.781 22.208C173.781 22.1013 173.819 22.0213 173.893 21.968C173.979 21.904 174.064 21.872 174.149 21.872H174.869C174.976 21.872 175.072 21.9253 175.157 22.032C175.413 22.3307 175.691 22.5653 175.989 22.736C176.288 22.9067 176.688 22.992 177.189 22.992C177.744 22.992 178.192 22.8853 178.533 22.672C178.885 22.448 179.061 22.144 179.061 21.76C179.061 21.504 178.987 21.296 178.837 21.136C178.699 20.9653 178.453 20.8213 178.101 20.704C177.76 20.576 177.248 20.4373 176.565 20.288C175.637 20.0853 174.976 19.792 174.581 19.408C174.197 19.024 174.005 18.528 174.005 17.92C174.005 17.5147 174.123 17.1307 174.357 16.768C174.603 16.3947 174.955 16.096 175.413 15.872C175.883 15.6373 176.443 15.52 177.093 15.52C177.776 15.52 178.357 15.632 178.837 15.856C179.317 16.08 179.675 16.3467 179.909 16.656C180.155 16.9547 180.277 17.2053 180.277 17.408C180.277 17.504 180.24 17.584 180.165 17.648C180.101 17.712 180.021 17.744 179.925 17.744H179.253C179.125 17.744 179.019 17.6907 178.933 17.584C178.763 17.3813 178.613 17.2267 178.485 17.12C178.368 17.0027 178.192 16.9013 177.957 16.816C177.733 16.7307 177.445 16.688 177.093 16.688C176.581 16.688 176.187 16.8 175.909 17.024C175.632 17.2373 175.493 17.52 175.493 17.872C175.493 18.096 175.552 18.288 175.669 18.448C175.787 18.5973 176.011 18.736 176.341 18.864C176.683 18.992 177.173 19.1253 177.813 19.264C178.827 19.4773 179.541 19.7867 179.957 20.192C180.384 20.5867 180.597 21.0933 180.597 21.712C180.597 22.1707 180.464 22.5867 180.197 22.96C179.931 23.3333 179.536 23.6267 179.013 23.84C178.501 24.0533 177.888 24.16 177.173 24.16ZM185.682 24C183.997 24 183.154 23.0613 183.154 21.184V16.96H181.906C181.799 16.96 181.709 16.928 181.634 16.864C181.57 16.7893 181.538 16.6987 181.538 16.592V16.048C181.538 15.9413 181.57 15.856 181.634 15.792C181.709 15.7173 181.799 15.68 181.906 15.68H183.154V13.008C183.154 12.9013 183.186 12.816 183.25 12.752C183.325 12.6773 183.415 12.64 183.522 12.64H184.274C184.381 12.64 184.466 12.6773 184.53 12.752C184.605 12.816 184.642 12.9013 184.642 13.008V15.68H186.626C186.733 15.68 186.818 15.7173 186.882 15.792C186.957 15.856 186.994 15.9413 186.994 16.048V16.592C186.994 16.6987 186.957 16.7893 186.882 16.864C186.818 16.928 186.733 16.96 186.626 16.96H184.642V21.072C184.642 21.6053 184.733 22.0107 184.914 22.288C185.095 22.5547 185.394 22.688 185.81 22.688H186.786C186.893 22.688 186.978 22.7253 187.042 22.8C187.117 22.864 187.154 22.9493 187.154 23.056V23.632C187.154 23.7387 187.117 23.8293 187.042 23.904C186.978 23.968 186.893 24 186.786 24H185.682Z" fill="white"/>
</svg>
