<svg width="88" height="88" viewBox="0 0 88 88" fill="none" xmlns="http://www.w3.org/2000/svg">
<rect x="1" y="1" width="86" height="86" stroke="#58A6FF" stroke-width="2"/>
<path d="M32.07 60C31.8247 60 31.5947 59.908 31.38 59.724C31.196 59.54 31.104 59.3253 31.104 59.08C31.104 58.8653 31.1653 58.666 31.288 58.482L41.822 43.624L31.794 29.318C31.702 29.1647 31.656 28.9653 31.656 28.72C31.656 28.4747 31.748 28.26 31.932 28.076C32.116 27.892 32.3307 27.8 32.576 27.8H35.336C35.796 27.8 36.21 28.0607 36.578 28.582L44.674 40.082L52.724 28.582C53.0307 28.0607 53.4293 27.8 53.92 27.8H56.542C56.7873 27.8 57.002 27.892 57.186 28.076C57.37 28.26 57.462 28.4747 57.462 28.72C57.462 28.996 57.4007 29.1953 57.278 29.318L47.388 43.67L57.876 58.482C57.9987 58.666 58.06 58.8653 58.06 59.08C58.06 59.3253 57.968 59.54 57.784 59.724C57.6 59.908 57.37 60 57.094 60H54.288C53.828 60 53.414 59.7393 53.046 59.218L44.49 47.304L35.98 59.218C35.6733 59.7393 35.2747 60 34.784 60H32.07Z" fill="#C9D1D9"/>
</svg>
