<svg width="90" height="38" viewBox="0 0 90 38" fill="none" xmlns="http://www.w3.org/2000/svg">
<rect width="90" height="38" rx="6" fill="#238636"/>
<path d="M19.76 24C19.6533 24 19.5627 23.968 19.488 23.904C19.424 23.8293 19.392 23.7387 19.392 23.632V13.184C19.392 13.0667 19.424 12.976 19.488 12.912C19.5627 12.8373 19.6533 12.8 19.76 12.8H23.664C24.8907 12.8 25.8507 13.088 26.544 13.664C27.2373 14.24 27.584 15.072 27.584 16.16C27.584 16.9707 27.3813 17.6373 26.976 18.16C26.5813 18.6827 26.0213 19.0453 25.296 19.248L27.76 23.504C27.792 23.568 27.808 23.6267 27.808 23.68C27.808 23.7653 27.7707 23.84 27.696 23.904C27.632 23.968 27.5573 24 27.472 24H26.704C26.544 24 26.416 23.9627 26.32 23.888C26.2347 23.8133 26.1547 23.7067 26.08 23.568L23.76 19.504H20.96V23.632C20.96 23.7387 20.9227 23.8293 20.848 23.904C20.7733 23.968 20.6827 24 20.576 24H19.76ZM23.6 18.144C25.1893 18.144 25.984 17.4773 25.984 16.144C25.984 14.8107 25.1893 14.144 23.6 14.144H20.96V18.144H23.6ZM32.9026 24.16C31.804 24.16 30.924 23.824 30.2626 23.152C29.612 22.4693 29.2546 21.5413 29.1906 20.368L29.1746 19.824L29.1906 19.296C29.2653 18.144 29.628 17.2267 30.2786 16.544C30.94 15.8613 31.8093 15.52 32.8866 15.52C34.0706 15.52 34.988 15.8987 35.6386 16.656C36.2893 17.4027 36.6146 18.416 36.6146 19.696V19.968C36.6146 20.0747 36.5773 20.1653 36.5026 20.24C36.4386 20.304 36.3533 20.336 36.2466 20.336H30.7106V20.48C30.7426 21.1733 30.9506 21.7653 31.3346 22.256C31.7293 22.736 32.2466 22.976 32.8866 22.976C33.3773 22.976 33.7773 22.88 34.0866 22.688C34.4066 22.4853 34.6413 22.2773 34.7906 22.064C34.8866 21.936 34.956 21.8613 34.9986 21.84C35.052 21.808 35.1426 21.792 35.2706 21.792H36.0546C36.1506 21.792 36.2306 21.8187 36.2946 21.872C36.3586 21.9253 36.3906 22 36.3906 22.096C36.3906 22.3307 36.2413 22.6133 35.9426 22.944C35.6546 23.2747 35.244 23.5627 34.7106 23.808C34.188 24.0427 33.5853 24.16 32.9026 24.16ZM35.0946 19.232V19.184C35.0946 18.448 34.892 17.8507 34.4866 17.392C34.092 16.9227 33.5586 16.688 32.8866 16.688C32.2146 16.688 31.6813 16.9227 31.2866 17.392C30.9026 17.8507 30.7106 18.448 30.7106 19.184V19.232H35.0946ZM41.4078 24.16C40.6611 24.16 40.0318 24.0427 39.5198 23.808C39.0184 23.5627 38.6398 23.2853 38.3838 22.976C38.1384 22.6667 38.0158 22.4107 38.0158 22.208C38.0158 22.1013 38.0531 22.0213 38.1278 21.968C38.2131 21.904 38.2984 21.872 38.3838 21.872H39.1038C39.2104 21.872 39.3064 21.9253 39.3918 22.032C39.6478 22.3307 39.9251 22.5653 40.2238 22.736C40.5224 22.9067 40.9224 22.992 41.4238 22.992C41.9784 22.992 42.4264 22.8853 42.7678 22.672C43.1198 22.448 43.2958 22.144 43.2958 21.76C43.2958 21.504 43.2211 21.296 43.0718 21.136C42.9331 20.9653 42.6878 20.8213 42.3358 20.704C41.9944 20.576 41.4824 20.4373 40.7998 20.288C39.8718 20.0853 39.2104 19.792 38.8158 19.408C38.4318 19.024 38.2398 18.528 38.2398 17.92C38.2398 17.5147 38.3571 17.1307 38.5918 16.768C38.8371 16.3947 39.1891 16.096 39.6478 15.872C40.1171 15.6373 40.6771 15.52 41.3278 15.52C42.0104 15.52 42.5918 15.632 43.0718 15.856C43.5518 16.08 43.9091 16.3467 44.1438 16.656C44.3891 16.9547 44.5118 17.2053 44.5118 17.408C44.5118 17.504 44.4744 17.584 44.3998 17.648C44.3358 17.712 44.2558 17.744 44.1598 17.744H43.4878C43.3598 17.744 43.2531 17.6907 43.1678 17.584C42.9971 17.3813 42.8478 17.2267 42.7198 17.12C42.6024 17.0027 42.4264 16.9013 42.1918 16.816C41.9678 16.7307 41.6798 16.688 41.3278 16.688C40.8158 16.688 40.4211 16.8 40.1438 17.024C39.8664 17.2373 39.7278 17.52 39.7278 17.872C39.7278 18.096 39.7864 18.288 39.9038 18.448C40.0211 18.5973 40.2451 18.736 40.5758 18.864C40.9171 18.992 41.4078 19.1253 42.0477 19.264C43.0611 19.4773 43.7758 19.7867 44.1918 20.192C44.6184 20.5867 44.8318 21.0933 44.8318 21.712C44.8318 22.1707 44.6984 22.5867 44.4318 22.96C44.1651 23.3333 43.7704 23.6267 43.2478 23.84C42.7358 24.0533 42.1224 24.16 41.4078 24.16ZM49.9164 24C48.231 24 47.3884 23.0613 47.3884 21.184V16.96H46.1404C46.0337 16.96 45.943 16.928 45.8684 16.864C45.8044 16.7893 45.7724 16.6987 45.7724 16.592V16.048C45.7724 15.9413 45.8044 15.856 45.8684 15.792C45.943 15.7173 46.0337 15.68 46.1404 15.68H47.3884V13.008C47.3884 12.9013 47.4204 12.816 47.4844 12.752C47.559 12.6773 47.6497 12.64 47.7564 12.64H48.5084C48.615 12.64 48.7004 12.6773 48.7644 12.752C48.839 12.816 48.8764 12.9013 48.8764 13.008V15.68H50.8604C50.967 15.68 51.0524 15.7173 51.1164 15.792C51.191 15.856 51.2284 15.9413 51.2284 16.048V16.592C51.2284 16.6987 51.191 16.7893 51.1164 16.864C51.0524 16.928 50.967 16.96 50.8604 16.96H48.8764V21.072C48.8764 21.6053 48.967 22.0107 49.1484 22.288C49.3297 22.5547 49.6284 22.688 50.0444 22.688H51.0204C51.127 22.688 51.2124 22.7253 51.2764 22.8C51.351 22.864 51.3884 22.9493 51.3884 23.056V23.632C51.3884 23.7387 51.351 23.8293 51.2764 23.904C51.2124 23.968 51.127 24 51.0204 24H49.9164ZM55.2384 24.16C54.7157 24.16 54.2304 24.0533 53.7824 23.84C53.3344 23.6267 52.977 23.3387 52.7104 22.976C52.4544 22.6027 52.3264 22.192 52.3264 21.744C52.3264 21.04 52.6144 20.464 53.1904 20.016C53.777 19.5573 54.5664 19.2587 55.5584 19.12L57.9424 18.784V18.32C57.9424 17.232 57.3184 16.688 56.0704 16.688C55.601 16.688 55.217 16.7893 54.9184 16.992C54.6197 17.184 54.3957 17.4133 54.2464 17.68C54.2144 17.776 54.1717 17.8453 54.1184 17.888C54.0757 17.9307 54.0117 17.952 53.9264 17.952H53.2384C53.1424 17.952 53.057 17.92 52.9824 17.856C52.9184 17.7813 52.8864 17.696 52.8864 17.6C52.897 17.344 53.0144 17.056 53.2384 16.736C53.473 16.4053 53.8304 16.1227 54.3104 15.888C54.7904 15.6427 55.3824 15.52 56.0864 15.52C57.281 15.52 58.1397 15.8027 58.6624 16.368C59.185 16.9227 59.4464 17.616 59.4464 18.448V23.632C59.4464 23.7387 59.409 23.8293 59.3344 23.904C59.2704 23.968 59.185 24 59.0784 24H58.3424C58.2357 24 58.145 23.968 58.0704 23.904C58.0064 23.8293 57.9744 23.7387 57.9744 23.632V22.944C57.7397 23.2853 57.3984 23.5733 56.9504 23.808C56.5024 24.0427 55.9317 24.16 55.2384 24.16ZM55.5744 22.96C56.2677 22.96 56.833 22.736 57.2704 22.288C57.7184 21.8293 57.9424 21.1733 57.9424 20.32V19.872L56.0864 20.144C55.329 20.2507 54.7584 20.432 54.3744 20.688C53.9904 20.9333 53.7984 21.248 53.7984 21.632C53.7984 22.0587 53.9744 22.3893 54.3264 22.624C54.6784 22.848 55.0944 22.96 55.5744 22.96ZM62.1145 24C62.0078 24 61.9172 23.968 61.8425 23.904C61.7785 23.8293 61.7465 23.7387 61.7465 23.632V16.064C61.7465 15.9573 61.7785 15.8667 61.8425 15.792C61.9172 15.7173 62.0078 15.68 62.1145 15.68H62.8505C62.9572 15.68 63.0478 15.7173 63.1225 15.792C63.1972 15.8667 63.2345 15.9573 63.2345 16.064V16.768C63.6718 16.0427 64.4185 15.68 65.4745 15.68H66.0985C66.2052 15.68 66.2905 15.7173 66.3545 15.792C66.4292 15.856 66.4665 15.9413 66.4665 16.048V16.704C66.4665 16.8107 66.4292 16.896 66.3545 16.96C66.2905 17.024 66.2052 17.056 66.0985 17.056H65.1385C64.5625 17.056 64.1092 17.2267 63.7785 17.568C63.4478 17.8987 63.2825 18.352 63.2825 18.928V23.632C63.2825 23.7387 63.2452 23.8293 63.1705 23.904C63.0958 23.968 63.0052 24 62.8985 24H62.1145ZM71.0726 24C69.3873 24 68.5446 23.0613 68.5446 21.184V16.96H67.2966C67.19 16.96 67.0993 16.928 67.0246 16.864C66.9606 16.7893 66.9286 16.6987 66.9286 16.592V16.048C66.9286 15.9413 66.9606 15.856 67.0246 15.792C67.0993 15.7173 67.19 15.68 67.2966 15.68H68.5446V13.008C68.5446 12.9013 68.5766 12.816 68.6406 12.752C68.7153 12.6773 68.806 12.64 68.9126 12.64H69.6646C69.7713 12.64 69.8566 12.6773 69.9206 12.752C69.9953 12.816 70.0326 12.9013 70.0326 13.008V15.68H72.0166C72.1233 15.68 72.2086 15.7173 72.2726 15.792C72.3473 15.856 72.3846 15.9413 72.3846 16.048V16.592C72.3846 16.6987 72.3473 16.7893 72.2726 16.864C72.2086 16.928 72.1233 16.96 72.0166 16.96H70.0326V21.072C70.0326 21.6053 70.1233 22.0107 70.3046 22.288C70.486 22.5547 70.7846 22.688 71.2006 22.688H72.1766C72.2833 22.688 72.3686 22.7253 72.4326 22.8C72.5073 22.864 72.5446 22.9493 72.5446 23.056V23.632C72.5446 23.7387 72.5073 23.8293 72.4326 23.904C72.3686 23.968 72.2833 24 72.1766 24H71.0726Z" fill="white"/>
</svg>
