<svg width="90" height="38" viewBox="0 0 90 38" fill="none" xmlns="http://www.w3.org/2000/svg">
<rect width="90" height="38" rx="6" fill="#238636"/>
<path d="M30.992 24.16C30.1067 24.16 29.3387 24.0213 28.688 23.744C28.048 23.4667 27.5573 23.104 27.216 22.656C26.8747 22.1973 26.6933 21.7067 26.672 21.184C26.672 21.0987 26.704 21.024 26.768 20.96C26.8427 20.8853 26.928 20.848 27.024 20.848H27.84C28.0427 20.848 28.1813 20.9547 28.256 21.168C28.352 21.616 28.624 22 29.072 22.32C29.5307 22.64 30.1707 22.8 30.992 22.8C31.8773 22.8 32.544 22.6453 32.992 22.336C33.44 22.016 33.664 21.5733 33.664 21.008C33.664 20.6453 33.552 20.352 33.328 20.128C33.1147 19.904 32.7947 19.7067 32.368 19.536C31.9413 19.3653 31.3013 19.152 30.448 18.896C29.616 18.6613 28.9547 18.4107 28.464 18.144C27.9733 17.8773 27.6053 17.5467 27.36 17.152C27.1147 16.7573 26.992 16.2613 26.992 15.664C26.992 15.088 27.1467 14.5707 27.456 14.112C27.776 13.6533 28.2293 13.296 28.816 13.04C29.4027 12.7733 30.1013 12.64 30.912 12.64C31.744 12.64 32.4587 12.7893 33.056 13.088C33.6533 13.376 34.1067 13.744 34.416 14.192C34.7253 14.64 34.8907 15.088 34.912 15.536C34.912 15.6213 34.88 15.696 34.816 15.76C34.7627 15.824 34.6827 15.856 34.576 15.856H33.728C33.504 15.856 33.3653 15.7547 33.312 15.552C33.248 15.104 32.9973 14.736 32.56 14.448C32.1227 14.1493 31.5733 14 30.912 14C30.1867 14 29.616 14.1387 29.2 14.416C28.784 14.6933 28.576 15.104 28.576 15.648C28.576 16.0107 28.672 16.3093 28.864 16.544C29.0667 16.7787 29.3707 16.9867 29.776 17.168C30.1813 17.3387 30.7733 17.536 31.552 17.76C32.4587 18.0053 33.1733 18.2613 33.696 18.528C34.2187 18.784 34.608 19.1093 34.864 19.504C35.12 19.888 35.248 20.3787 35.248 20.976C35.248 21.968 34.864 22.7467 34.096 23.312C33.328 23.8773 32.2933 24.16 30.992 24.16ZM40.3851 24C38.6998 24 37.8571 23.0613 37.8571 21.184V16.96H36.6091C36.5025 16.96 36.4118 16.928 36.3371 16.864C36.2731 16.7893 36.2411 16.6987 36.2411 16.592V16.048C36.2411 15.9413 36.2731 15.856 36.3371 15.792C36.4118 15.7173 36.5025 15.68 36.6091 15.68H37.8571V13.008C37.8571 12.9013 37.8891 12.816 37.9531 12.752C38.0278 12.6773 38.1185 12.64 38.2251 12.64H38.9771C39.0838 12.64 39.1691 12.6773 39.2331 12.752C39.3078 12.816 39.3451 12.9013 39.3451 13.008V15.68H41.3291C41.4358 15.68 41.5211 15.7173 41.5851 15.792C41.6598 15.856 41.6971 15.9413 41.6971 16.048V16.592C41.6971 16.6987 41.6598 16.7893 41.5851 16.864C41.5211 16.928 41.4358 16.96 41.3291 16.96H39.3451V21.072C39.3451 21.6053 39.4358 22.0107 39.6171 22.288C39.7985 22.5547 40.0971 22.688 40.5131 22.688H41.4891C41.5958 22.688 41.6811 22.7253 41.7451 22.8C41.8198 22.864 41.8571 22.9493 41.8571 23.056V23.632C41.8571 23.7387 41.8198 23.8293 41.7451 23.904C41.6811 23.968 41.5958 24 41.4891 24H40.3851ZM45.7071 24.16C45.1845 24.16 44.6991 24.0533 44.2511 23.84C43.8031 23.6267 43.4458 23.3387 43.1791 22.976C42.9231 22.6027 42.7951 22.192 42.7951 21.744C42.7951 21.04 43.0831 20.464 43.6591 20.016C44.2458 19.5573 45.0351 19.2587 46.0271 19.12L48.4111 18.784V18.32C48.4111 17.232 47.7871 16.688 46.5391 16.688C46.0698 16.688 45.6858 16.7893 45.3871 16.992C45.0885 17.184 44.8645 17.4133 44.7151 17.68C44.6831 17.776 44.6405 17.8453 44.5871 17.888C44.5445 17.9307 44.4805 17.952 44.3951 17.952H43.7071C43.6111 17.952 43.5258 17.92 43.4511 17.856C43.3871 17.7813 43.3551 17.696 43.3551 17.6C43.3658 17.344 43.4831 17.056 43.7071 16.736C43.9418 16.4053 44.2991 16.1227 44.7791 15.888C45.2591 15.6427 45.8511 15.52 46.5551 15.52C47.7498 15.52 48.6085 15.8027 49.1311 16.368C49.6538 16.9227 49.9151 17.616 49.9151 18.448V23.632C49.9151 23.7387 49.8778 23.8293 49.8031 23.904C49.7391 23.968 49.6538 24 49.5471 24H48.8111C48.7045 24 48.6138 23.968 48.5391 23.904C48.4751 23.8293 48.4431 23.7387 48.4431 23.632V22.944C48.2085 23.2853 47.8671 23.5733 47.4191 23.808C46.9711 24.0427 46.4005 24.16 45.7071 24.16ZM46.0431 22.96C46.7365 22.96 47.3018 22.736 47.7391 22.288C48.1871 21.8293 48.4111 21.1733 48.4111 20.32V19.872L46.5551 20.144C45.7978 20.2507 45.2271 20.432 44.8431 20.688C44.4591 20.9333 44.2671 21.248 44.2671 21.632C44.2671 22.0587 44.4431 22.3893 44.7951 22.624C45.1471 22.848 45.5631 22.96 46.0431 22.96ZM52.5833 24C52.4766 24 52.3859 23.968 52.3113 23.904C52.2473 23.8293 52.2153 23.7387 52.2153 23.632V16.064C52.2153 15.9573 52.2473 15.8667 52.3113 15.792C52.3859 15.7173 52.4766 15.68 52.5833 15.68H53.3193C53.4259 15.68 53.5166 15.7173 53.5913 15.792C53.6659 15.8667 53.7033 15.9573 53.7033 16.064V16.768C54.1406 16.0427 54.8873 15.68 55.9433 15.68H56.5673C56.6739 15.68 56.7593 15.7173 56.8233 15.792C56.8979 15.856 56.9353 15.9413 56.9353 16.048V16.704C56.9353 16.8107 56.8979 16.896 56.8233 16.96C56.7593 17.024 56.6739 17.056 56.5673 17.056H55.6073C55.0313 17.056 54.5779 17.2267 54.2473 17.568C53.9166 17.8987 53.7513 18.352 53.7513 18.928V23.632C53.7513 23.7387 53.7139 23.8293 53.6393 23.904C53.5646 23.968 53.4739 24 53.3673 24H52.5833ZM61.5414 24C59.856 24 59.0134 23.0613 59.0134 21.184V16.96H57.7654C57.6587 16.96 57.568 16.928 57.4934 16.864C57.4294 16.7893 57.3974 16.6987 57.3974 16.592V16.048C57.3974 15.9413 57.4294 15.856 57.4934 15.792C57.568 15.7173 57.6587 15.68 57.7654 15.68H59.0134V13.008C59.0134 12.9013 59.0454 12.816 59.1094 12.752C59.184 12.6773 59.2747 12.64 59.3814 12.64H60.1334C60.24 12.64 60.3254 12.6773 60.3894 12.752C60.464 12.816 60.5014 12.9013 60.5014 13.008V15.68H62.4854C62.592 15.68 62.6774 15.7173 62.7414 15.792C62.816 15.856 62.8534 15.9413 62.8534 16.048V16.592C62.8534 16.6987 62.816 16.7893 62.7414 16.864C62.6774 16.928 62.592 16.96 62.4854 16.96H60.5014V21.072C60.5014 21.6053 60.592 22.0107 60.7734 22.288C60.9547 22.5547 61.2534 22.688 61.6694 22.688H62.6454C62.752 22.688 62.8374 22.7253 62.9014 22.8C62.976 22.864 63.0134 22.9493 63.0134 23.056V23.632C63.0134 23.7387 62.976 23.8293 62.9014 23.904C62.8374 23.968 62.752 24 62.6454 24H61.5414Z" fill="white"/>
</svg>
